<?xml version="1.0" encoding="utf-8"?>
<!-- Generator: Adobe Illustrator 21.0.2, SVG Export Plug-In . SVG Version: 6.00 Build 0)  -->
<svg version="1.1" id="Calque_1" xmlns="http://www.w3.org/2000/svg" xmlns:xlink="http://www.w3.org/1999/xlink" x="0px" y="0px"
	 viewBox="0 0 491.7 890.8" style="enable-background:new 0 0 491.7 890.8;" xml:space="preserve">
<style type="text/css">
	.st0{fill:url(#SVGID_1_);}
	.st1{fill:#ADD9D3;}
	.st2{fill:none;stroke:#12100B;stroke-miterlimit:10;}
	.st3{fill:url(#SVGID_2_);}
	.st4{fill:#07383E;}
	.st5{fill:#075A63;}
	.st6{fill:#FFFFFF;}
	.st7{opacity:0.4;}
	.st8{fill:#060F15;}
	.st9{fill:url(#SVGID_3_);}
	.st10{fill:url(#SVGID_4_);}
	.st11{fill:url(#SVGID_5_);}
	.st12{fill:url(#SVGID_6_);}
	.st13{opacity:0.4;fill:#060F15;}
</style>
<g>
	<linearGradient id="SVGID_1_" gradientUnits="userSpaceOnUse" x1="276.2506" y1="601.9349" x2="-53.4271" y2="411.5953">
		<stop  offset="0" style="stop-color:#21B093"/>
		<stop  offset="0.397" style="stop-color:#1FAF93"/>
		<stop  offset="0.5399" style="stop-color:#16AB94"/>
		<stop  offset="0.6419" style="stop-color:#00A595"/>
		<stop  offset="0.7244" style="stop-color:#009C95"/>
		<stop  offset="0.795" style="stop-color:#009193"/>
		<stop  offset="0.8575" style="stop-color:#00828D"/>
		<stop  offset="0.9141" style="stop-color:#006F83"/>
		<stop  offset="0.9643" style="stop-color:#005A72"/>
		<stop  offset="1" style="stop-color:#00455E"/>
	</linearGradient>
	<path class="st0" d="M249.2,373.1v113.4c54.5,0,98.7,44.7,98.7,99.9s-44.2,99.9-98.7,99.9c-54.5,0-98.7-44.7-98.7-99.9H38.4
		c0,117.8,94.4,213.2,210.7,213.2s210.7-95.5,210.7-213.2S365.6,373.1,249.2,373.1z"/>
	<path class="st1" d="M431.1,484.1"/>
	<path class="st2" d="M373.7,394.2"/>
	<linearGradient id="SVGID_2_" gradientUnits="userSpaceOnUse" x1="249.1743" y1="114.6145" x2="249.1743" y2="114.6145">
		<stop  offset="0" style="stop-color:#21B093"/>
		<stop  offset="1" style="stop-color:#000000"/>
	</linearGradient>
	<path class="st3" d="M249.2,114.6"/>
	<g>
		<path class="st4" d="M319,600.2c21.7,69.5,18.7,153.1-11.9,236.9c23.2-28,43.9-59.1,61.4-92.9c56.4-109,66.4-222.4,36.4-310.6
			C388.5,488.5,359.1,545.5,319,600.2z"/>
		<g>
			<g>
				<path class="st5" d="M36.9,817.7l-1-1.4c-0.3-0.5-0.6-1-0.7-1.6l-0.5-2.8l2.7-1c59.9-23.4,127.8-82.8,181.5-158.7
					c40.5-57.2,69.8-119.2,82.5-174.4c0.7-3.1,1.3-5.9,1.8-8.5c6-29.7,6.8-55.8,2.4-77.6c-4.5-22.1-14.2-38.6-28.8-48.9
					c-5.7-4-12-7.1-18.9-9l-0.6-0.2c-0.5-0.1-1-0.3-1.5-0.4l0,0l-0.4-0.1c-6-1.5-12.6-2.3-19.5-2.3c-44.2,0-101.6,30.4-157.5,83.3
					c0,0-0.3,0.3-0.3,0.3l-5.3-4.5c0.1-0.1,0.2-0.2,0.2-0.3l0.4-0.5c0.2-0.2,0.4-0.5,0.6-0.7c32.8-43.6,69.9-83,107.2-114
					c36.5-30.3,73.4-52.6,106.7-64.7c19.4-7,37.6-10.6,54.1-10.6c19.4,0,36.3,5,50.1,14.7c33,23.4,45.4,72.5,34.8,138.3
					c-10.4,64.5-41.8,139.7-88.5,211.8c-5.8,9-11.8,17.9-17.9,26.4c-43.4,61.3-93.3,113.5-144.5,150.9
					c-50.5,37-97.8,56.5-136.8,56.5L36.9,817.7z"/>
				<path class="st6" d="M341.8,222.5c18.3,0,34.6,4.5,48,14.1c66.2,46.9,41,197.7-54.6,345.4c-5.7,8.8-11.6,17.6-17.8,26.3
					c-89,125.7-201.5,206-278.4,206c-0.1,0-0.2,0-0.3,0c0,0,0-0.1-0.1-0.1c58.5-22.9,126.7-80.3,183.1-160
					c42.4-59.9,70.7-121.9,83-175.7c0.7-2.9,1.3-5.8,1.9-8.6c12-59.5,3.6-107.8-27.9-130.1c-6.1-4.3-12.8-7.5-20-9.5l0,0
					c-0.1,0-0.2-0.1-0.3-0.1c-0.7-0.2-1.5-0.4-2.2-0.6c0,0-0.1,0-0.1,0c-6.4-1.6-13.2-2.4-20.3-2.4c-45.2,0-103.7,31.1-159.9,84.3
					c-0.1,0.1-0.3,0.2-0.4,0.4c0.1-0.1,0.2-0.3,0.3-0.4c0.3-0.3,0.5-0.7,0.8-1C144,320.6,222.8,256.8,289,232.9
					C307.8,226,325.6,222.5,341.8,222.5 M341.8,215.5c-16.8,0-35.4,3.6-55.2,10.8c-33.7,12.2-71,34.8-107.8,65.3
					c-37.6,31.1-74.8,70.7-107.7,114.5c-0.2,0.3-0.4,0.5-0.6,0.8l-0.2,0.3l-0.1,0.1l0,0l0,0c-0.1,0.1-0.2,0.3-0.3,0.4l10.6,9l0,0
					l0.1-0.1c0.1-0.1,0.2-0.2,0.3-0.3c27.2-25.7,55.7-46.8,82.5-61c26.5-14,51.6-21.4,72.5-21.4c6.6,0,12.9,0.7,18.6,2.2l0.7,0.2
					l0,0c0.5,0.1,0.9,0.2,1.3,0.4l0.2,0.1l0,0l0.1,0c6.5,1.9,12.5,4.7,17.9,8.5c13.9,9.8,23.1,25.5,27.4,46.7
					c4.3,21.3,3.5,47-2.4,76.2c-0.5,2.6-1.1,5.4-1.8,8.4c-12.6,54.8-41.7,116.3-81.9,173.2C162.7,725.5,95.4,784.4,36.1,807.6
					l-5.3,2.1l1,5.6c0.2,1.1,0.6,2.2,1.3,3.1l2.1,2.8l3.5,0l0.3,0c19.9,0,42.2-5.1,66.1-15c23.3-9.7,47.8-23.9,72.7-42.1
					c51.5-37.7,101.7-90.2,145.3-151.7c6.1-8.6,12.1-17.5,18-26.5c47-72.5,78.6-148.2,89-213.2c10.8-67.2-2.1-117.5-36.3-141.7
					C379.5,220.6,362,215.5,341.8,215.5L341.8,215.5z"/>
			</g>
			<g class="st7">
				<path class="st8" d="M256.1,329.5c0.1,0,0.1,0,0.1,0c0.7,0.2,1.5,0.4,2.2,0.6c0.1,0,0.2,0.1,0.3,0.1l0,0
					c7.2,2.1,13.9,5.2,20,9.5c31.4,22.3,39.8,70.6,27.9,130.1c-0.6,2.9-1.2,5.7-1.9,8.6c-12.3,53.8-40.7,115.8-83,175.7
					c-47.9,67.6-104.3,119.2-156,147.3c245.5-125.1,333.7-452.3,246.8-502.6c-90-52.1-236,111.6-236,111.6l0,0.4
					C141.4,349.6,209.3,317.9,256.1,329.5z"/>
			</g>
		</g>
	</g>
	<g>
		<linearGradient id="SVGID_3_" gradientUnits="userSpaceOnUse" x1="249.1742" y1="173.3086" x2="249.1742" y2="173.3086">
			<stop  offset="0" style="stop-color:#21B093"/>
			<stop  offset="1" style="stop-color:#00455E"/>
		</linearGradient>
		<path class="st9" d="M249.2,173.3"/>
		<linearGradient id="SVGID_4_" gradientUnits="userSpaceOnUse" x1="248.7218" y1="173.3096" x2="248.7218" y2="173.3096">
			<stop  offset="0" style="stop-color:#21B093"/>
			<stop  offset="1" style="stop-color:#00455E"/>
		</linearGradient>
		<path class="st10" d="M248.7,173.3"/>
		<linearGradient id="SVGID_5_" gradientUnits="userSpaceOnUse" x1="370.1625" y1="345.8789" x2="39.6728" y2="155.0706">
			<stop  offset="0" style="stop-color:#21B093"/>
			<stop  offset="0.1604" style="stop-color:#1DAE94"/>
			<stop  offset="0.3077" style="stop-color:#0CA894"/>
			<stop  offset="0.4499" style="stop-color:#009E95"/>
			<stop  offset="0.5891" style="stop-color:#009193"/>
			<stop  offset="0.726" style="stop-color:#007E8C"/>
			<stop  offset="0.861" style="stop-color:#00667C"/>
			<stop  offset="0.9925" style="stop-color:#004760"/>
			<stop  offset="1" style="stop-color:#00455E"/>
		</linearGradient>
		<path class="st11" d="M298.6,59.9c-0.2,0-49.3,0-49.5,0C129.2,60.1,31.8,155.5,31.8,273.2c0,117.8,97.3,213.3,217.4,213.3V373
			c-12.3,0-24.2-2.2-35.1-6.1c-38.9-14-66.7-50.7-66.7-93.8c0-54.8,45.9-99.4,101.7-99.9c0.2,0,54.3,0,54.5,0"/>
		<linearGradient id="SVGID_6_" gradientUnits="userSpaceOnUse" x1="321.164" y1="71.8707" x2="321.164" y2="71.8707">
			<stop  offset="0" style="stop-color:#21B093"/>
			<stop  offset="1" style="stop-color:#00455E"/>
		</linearGradient>
		<path class="st12" d="M321.2,71.9"/>
	</g>
	<g>
		<path class="st5" d="M330.2,184c-25.7,0-49-25.3-54.3-58.9c-5.8-36.6,11.9-69.8,39.4-74.2c2-0.3,4-0.5,6.1-0.5
			c25.7,0,49,25.3,54.3,58.9c5.8,36.6-11.9,69.8-39.4,74.2C334.3,183.9,332.2,184,330.2,184z"/>
		<path class="st6" d="M321.3,54c23.7,0,45.8,23.7,50.9,55.9c5.5,34.7-10.8,66.1-36.5,70.2c-1.8,0.3-3.7,0.4-5.5,0.4
			c-23.7,0-45.8-23.7-50.9-55.9c-5.5-34.7,10.8-66.1,36.5-70.2C317.7,54.1,319.5,54,321.3,54 M321.3,47L321.3,47
			c-2.2,0-4.4,0.2-6.6,0.5c-14.7,2.3-27.1,12-35,27.3c-7.6,14.6-10.2,32.7-7.3,50.9c2.7,16.8,9.9,32.3,20.2,43.7
			c10.7,11.7,24.1,18.2,37.6,18.2c2.2,0,4.4-0.2,6.6-0.5c14.7-2.3,27.1-12,35-27.3c7.6-14.6,10.2-32.7,7.3-50.9
			c-2.7-16.8-9.9-32.3-20.2-43.7C348.2,53.4,334.8,47,321.3,47L321.3,47z"/>
	</g>
	<path class="st13" d="M310.5,55.7c0,0,54.2,12,62.5,75.1c0,0,2.9-36.5-16.8-58.2S318.1,52.2,310.5,55.7z"/>
</g>
</svg>
