<?xml version="1.0" encoding="utf-8"?>
<!-- Generator: Adobe Illustrator 21.0.2, SVG Export Plug-In . SVG Version: 6.00 Build 0)  -->
<svg version="1.1" id="objects" xmlns="http://www.w3.org/2000/svg" xmlns:xlink="http://www.w3.org/1999/xlink" x="0px" y="0px"
	 viewBox="0 0 160 60" style="enable-background:new 0 0 160 60;" xml:space="preserve">
<style type="text/css">
	.st0{fill:#314A7E;}
	.st1{fill:#F1F2F2;}
	.st2{fill:#339DC3;}
	.st3{fill:#DC4335;}
</style>
<title>social</title>
<circle class="st0" cx="30" cy="30" r="20"/>
<path class="st1" d="M35.1,30h-3.3v11.8h-4.9V30h-2.3v-4.2h2.3v-2.7c0-1.9,0.9-5,5-5h3.6v4h-2.7c-0.6,0-1,0.4-1,1c0,0.1,0,0.1,0,0.1
	v2.5h3.7L35.1,30z"/>
<circle class="st2" cx="80" cy="30" r="20"/>
<path class="st1" d="M92.3,22.3c-0.9,0.4-1.9,0.7-2.9,0.8c1.1-0.6,1.9-1.6,2.2-2.8c-1,0.6-2.1,1-3.2,1.2c-1.9-2-5.1-2.1-7.2-0.2
	c-1.3,1.2-1.9,3.1-1.5,4.8c-4.1-0.2-7.9-2.1-10.4-5.3c-1.3,2.3-0.7,5.3,1.6,6.8c-0.8,0-1.6-0.3-2.3-0.7c0,0,0,0,0,0.1
	c0,2.4,1.7,4.5,4.1,5c-0.7,0.2-1.5,0.2-2.3,0.1c0.7,2.1,2.6,3.5,4.7,3.5c-2.1,1.7-4.8,2.4-7.5,2.1c6.7,4.3,15.6,2.4,19.9-4.3
	c1.5-2.3,2.3-5,2.3-7.8c0-0.2,0-0.4,0-0.7C90.8,24.2,91.7,23.4,92.3,22.3L92.3,22.3z"/>
<circle class="st3" cx="130" cy="30" r="20"/>
<path class="st1" d="M125.4,28.9v2.8h4.6c-0.4,2.2-2.4,3.6-4.6,3.5c-2.8-0.1-5-2.5-4.9-5.3c0.1-2.6,2.2-4.8,4.9-4.9
	c1.2,0,2.4,0.4,3.2,1.2l2.2-2.2c-1.5-1.4-3.4-2.1-5.4-2.1c-4.5,0.2-8,3.9-7.8,8.4c0.1,4.2,3.6,7.7,7.8,7.8c4.7,0,7.8-3.3,7.8-7.9
	c0-0.4,0-0.9-0.1-1.3L125.4,28.9z"/>
<path class="st1" d="M142.7,28.9h-2.3v-2.3h-2.3v2.3h-2.3v2.3h2.3v2.3h2.3v-2.3h2.3V28.9z"/>
</svg>
