<?xml version="1.0" encoding="utf-8"?>
<!-- Generator: Adobe Illustrator 21.0.2, SVG Export Plug-In . SVG Version: 6.00 Build 0)  -->
<svg version="1.1" id="Calque_1" xmlns="http://www.w3.org/2000/svg" xmlns:xlink="http://www.w3.org/1999/xlink" x="0px" y="0px"
	 viewBox="0 0 451.8 443.8" style="enable-background:new 0 0 451.8 443.8;" xml:space="preserve">
<style type="text/css">
	.st0{fill:#020203;}
</style>
<path id="XMLID_750_" class="st0" d="M451.1,79.8l-93.7,283.9c-1.2,3.6-3.7,6.4-7,8.1c-2,1-4.1,1.5-6.3,1.5c-1.5,0-3-0.2-4.4-0.7
	l-23.4-7.7c-4.7-1.6-7.3-6.6-5.7-11.4c1.6-4.7,6.7-7.3,11.4-5.7l19.7,6.5l91.2-276.3L254.2,19l-25.3,76.8c-1.6,4.7-6.7,7.3-11.4,5.7
	c-4.7-1.6-7.3-6.6-5.7-11.4l26.6-80.6c2.4-7.3,10.4-11.4,17.7-8.9l186.1,61.4c3.6,1.2,6.4,3.7,8.1,7C452,72.5,452.3,76.3,451.1,79.8
	z M266.7,71.7c0.9,0.3,1.9,0.5,2.8,0.5c3.8,0,7.3-2.4,8.5-6.2l2.7-8.1c1.6-4.7-1-9.8-5.7-11.4c-4.7-1.6-9.8,1-11.4,5.7l-2.7,8.1
	C259.4,65.1,261.9,70.2,266.7,71.7z M317.8,307.3l-2.7,8.1c-1.6,4.7,1,9.8,5.7,11.4c0.9,0.3,1.9,0.5,2.8,0.5c3.8,0,7.3-2.4,8.5-6.2
	l2.7-8.1c1.6-4.7-1-9.8-5.7-11.4C324.5,300.1,319.4,302.6,317.8,307.3z M254.5,149.2c2.6-7.9,8.1-14.2,15.5-18
	c7.4-3.7,15.8-4.4,23.7-1.8c9.7,3.2,15,8.9,18,15.6c6.4-3.6,14.1-5,23.8-1.8c16.2,5.4,25.1,22.9,19.7,39.2
	c-8.1,24.4-38,39.5-67,54.1c-1.3,0.7-2.7,1-4,1c-3.3,0-6.5-1.8-8-5C261.5,203.5,246.4,173.6,254.5,149.2z M288.1,216.3
	c23-11.7,44.8-24.1,49.9-39.6c2.2-6.8-1.5-14.2-8.3-16.4c-5.5-1.8-9-1.3-16.9,6.6c-2.4,2.4-6,3.3-9.2,2.2c-3.2-1.1-5.6-3.9-6.1-7.2
	c-1.6-11-4.2-13.5-9.6-15.3c-1.3-0.4-2.7-0.7-4.1-0.7c-2,0-4,0.5-5.8,1.4c-3.1,1.6-5.4,4.2-6.5,7.5
	C266.4,170.3,276.6,193.3,288.1,216.3z M219.4,211.8v87.8c0,5,4,9,9,9s9-4,9-9v-87.8c0-31.5-5.8-58-17.1-78.7
	c-10.6-19.2-26-33.1-44.7-40.1l-60.1-27.1c-3.2-1.4-6.9-0.9-9.5,1.4c-2.6,2.3-3.8,5.9-2.8,9.2l5,18.4c-30.9,11.5-59.5,36-81.1,69.6
	c-0.9,1.4-1.4,3.1-1.4,4.9V225c0,5,4,9,9,9h34.8c0.3,0,0.6,0,0.9,0c9.5-1,25-6,27.3-28.2c3-1.2,6.3-1.8,9.5-1.8
	c14.5,0,26.2,11.8,26.2,26.2c0,16.6-10.2,20.6-31.5,27.4c-26.5,8.4-62.8,19.9-62.8,80.1v14.3c-16.9,0-30.6,13.8-30.6,30.7
	c0,2.8,0.4,5.5,1.1,8.1C3.5,396.5,0,404.5,0,413c0,8.2,3.2,15.9,9,21.7c5.8,5.8,13.5,9,21.7,9h115.1c5,0,9-4,9-9s-4-9-9-9H30.7
	c-3.4,0-6.6-1.3-9-3.7c-2.4-2.4-3.7-5.6-3.7-9c0-2.6,0.8-5.2,2.3-7.3h116c5,0,9-4,9-9s-4-9-9-9H27.6c-0.7-1.6-1.1-3.4-1.1-5.1
	c0-7,5.7-12.7,12.7-12.7l106.6,0c5,0,9-4,9-9s-4-9-9-9l-88.7,0v-14.3c0-47,24.4-54.7,50.3-62.9c20.7-6.5,44.1-14,44.1-44.5
	c0-24.4-19.9-44.2-44.2-44.2c-8.1,0-16,2.2-22.9,6.4c-2.7,1.6-4.3,4.5-4.3,7.7c0,12.2-4,15.2-10.9,16H43.6v-10.9h3.8c5,0,9-4,9-9
	s-4-9-9-9h-3.8v-15.1c20.8-31.5,49.1-54.2,78-62.7c4.7-1.4,7.4-6.3,6.2-11l-2.2-8.1l42.2,19c0.3,0.2,0.7,0.3,1.1,0.5
	C200.9,121.4,219.4,158.6,219.4,211.8z M130.5,142c-5,0-9,4-9,9s4,9,9,9h2c5,0,9-4,9-9s-4-9-9-9H130.5z M295.1,341.8v82.9
	c0,10.5-8.5,19.1-19.1,19.1h-82.9c-10.5,0-19.1-8.5-19.1-19.1v-82.9c0-10.5,8.5-19.1,19.1-19.1H276
	C286.6,322.8,295.1,331.3,295.1,341.8z M277.1,341.8c0-0.6-0.5-1.1-1.1-1.1h-82.9c-0.6,0-1.1,0.5-1.1,1.1v82.9
	c0,0.6,0.5,1.1,1.1,1.1H276c0.6,0,1.1-0.5,1.1-1.1V341.8z M251.3,358h-2c-5,0-9,4-9,9s4,9,9,9h2c5,0,9-4,9-9S256.3,358,251.3,358z
	 M251.3,390.5h-2c-5,0-9,4-9,9s4,9,9,9h2c5,0,9-4,9-9S256.3,390.5,251.3,390.5z M219.9,358h-2c-5,0-9,4-9,9s4,9,9,9h2c5,0,9-4,9-9
	S224.8,358,219.9,358z M219.9,390.5h-2c-5,0-9,4-9,9s4,9,9,9h2c5,0,9-4,9-9S224.8,390.5,219.9,390.5z"/>
</svg>
