<?xml version="1.0" encoding="utf-8"?>
<!-- Generator: Adobe Illustrator 21.0.2, SVG Export Plug-In . SVG Version: 6.00 Build 0)  -->
<svg version="1.1" id="Calque_1" xmlns="http://www.w3.org/2000/svg" xmlns:xlink="http://www.w3.org/1999/xlink" x="0px" y="0px"
	 viewBox="0 0 342.5 443.8" style="enable-background:new 0 0 342.5 443.8;" xml:space="preserve">
<style type="text/css">
	.st0{fill:#020203;}
</style>
<g>
	<path class="st0" d="M264.7,179.1V90.3C264.7,40.5,221,0,167.4,0S70.1,40.5,70.1,90.3v88.7H9.9c-5.5,0-9.9,4.4-9.9,9.9v192.5v52.4
		c0,5.5,4.4,9.9,9.9,9.9h322.8c5.5,0,9.9-4.4,9.9-9.9v-52.4V188.9c0-5.5-4.4-9.9-9.9-9.9H264.7z M85.6,90.3
		c0-41.2,36.7-74.7,81.7-74.7s81.7,33.5,81.7,74.7v88.7H85.6V90.3z M327,428.2H15.6V397H327V428.2z M15.6,381.5V194.6h54.5h194.6
		H327v186.8H15.6z"/>
	<path class="st0" d="M171.3,241.3c-17.2,0-31.1,14-31.1,31.1v46.7c0,17.2,14,31.1,31.1,31.1s31.1-14,31.1-31.1v-46.7
		C202.4,255.3,188.4,241.3,171.3,241.3z M186.8,319.2c0,8.6-7,15.6-15.6,15.6c-8.6,0-15.6-7-15.6-15.6v-46.7c0-8.6,7-15.6,15.6-15.6
		c8.6,0,15.6,7,15.6,15.6V319.2z"/>
</g>
</svg>
