<?xml version="1.0" encoding="utf-8"?>
<!-- Generator: Adobe Illustrator 21.0.2, SVG Export Plug-In . SVG Version: 6.00 Build 0)  -->
<svg version="1.1" id="Calque_1" xmlns="http://www.w3.org/2000/svg" xmlns:xlink="http://www.w3.org/1999/xlink" x="0px" y="0px"
	 viewBox="0 0 216 173.7" style="enable-background:new 0 0 216 173.7;" xml:space="preserve">
<style type="text/css">
	.st0{fill:#174A6E;}
	.st1{fill:#EBEDF2;}
</style>
<path class="st0" d="M3.4,83L207.7,0.5C213-1.7,218,4.1,215.2,9l-88.1,153.9c-2.5,4.3-8.1,5.7-12.2,2.9l-27.6-18.1
	c-2.5-1.7-5.9-1-7.6,1.4l-15.8,22.1c-2.8,3.9-8.7,3.1-10.4-1.3l-20.1-52.6c-1.3-3.5-3.7-6.4-6.7-8.5L2.4,92.6
	C-1.2,90.1-0.6,84.6,3.4,83z"/>
<path class="st1" d="M132.2,67.7l-57.9,53.8c-0.8,0.7-0.7,2,0.2,2.6l41.6,26.8c0.8,0.5,1.8,0.3,2.3-0.5l75.4-128.4
	c0.8-1.3-0.6-2.9-2-2.3L24.2,88.2c-1.2,0.5-1.4,2.2-0.3,2.9l17.3,11.1c0.5,0.3,1,0.3,1.5,0.1L130.4,65
	C132.1,64.3,133.5,66.5,132.2,67.7z"/>
</svg>
